<svg xmlns="http://www.w3.org/2000/svg" viewBox="0 0 500 500"><g id="freepik--background-complete--inject-2"><rect y="382.4" width="500" height="0.25" style="fill:#ebebeb"></rect><rect x="416.78" y="398.49" width="33.12" height="0.25" style="fill:#ebebeb"></rect><rect x="322.53" y="401.21" width="8.69" height="0.25" style="fill:#ebebeb"></rect><rect x="396.59" y="389.21" width="19.19" height="0.25" style="fill:#ebebeb"></rect><rect x="52.46" y="390.89" width="43.19" height="0.25" style="fill:#ebebeb"></rect><rect x="104.56" y="390.89" width="6.33" height="0.25" style="fill:#ebebeb"></rect><rect x="131.47" y="395.11" width="93.68" height="0.25" style="fill:#ebebeb"></rect><path d="M237,337.8H43.91a5.71,5.71,0,0,1-5.7-5.71V60.66A5.71,5.71,0,0,1,43.91,55H237a5.71,5.71,0,0,1,5.71,5.71V332.09A5.71,5.71,0,0,1,237,337.8ZM43.91,55.2a5.46,5.46,0,0,0-5.45,5.46V332.09a5.46,5.46,0,0,0,5.45,5.46H237a5.47,5.47,0,0,0,5.46-5.46V60.66A5.47,5.47,0,0,0,237,55.2Z" style="fill:#ebebeb"></path><path d="M453.31,337.8H260.21a5.72,5.72,0,0,1-5.71-5.71V60.66A5.72,5.72,0,0,1,260.21,55h193.1A5.71,5.71,0,0,1,459,60.66V332.09A5.71,5.71,0,0,1,453.31,337.8ZM260.21,55.2a5.47,5.47,0,0,0-5.46,5.46V332.09a5.47,5.47,0,0,0,5.46,5.46h193.1a5.47,5.47,0,0,0,5.46-5.46V60.66a5.47,5.47,0,0,0-5.46-5.46Z" style="fill:#ebebeb"></path><polygon points="103.1 124.51 137.85 104.29 164.62 104.29 199.94 123.55 199.94 344.61 103.1 344.61 103.1 124.51" style="fill:#f0f0f0"></polygon><path d="M200.94,344.61H103.1V124.51l1-1A68.81,68.81,0,0,1,152,104.29h0a68.81,68.81,0,0,1,47.92,19.26l1,1Zm-91.35-6.49h84.86V127.29a62.78,62.78,0,0,0-84.86,0Z" style="fill:#fafafa"></path><polygon points="149.59 338.9 154.46 338.9 154.46 265.41 195.68 265.41 195.68 260.54 154.46 260.54 154.46 186.05 195.68 186.05 195.68 181.19 154.46 181.19 154.46 109.94 149.59 109.94 149.59 181.19 108.36 181.19 108.36 186.05 149.59 186.05 149.59 260.54 108.36 260.54 108.36 265.41 149.59 265.41 149.59 338.9" style="fill:#fafafa"></polygon><path d="M204.18,347.86H99.86V123.18l1-1a72.52,72.52,0,0,1,102.42,0l1,1Zm-97.83-6.49h91.34V125.89a66,66,0,0,0-91.34,0Z" style="fill:#f0f0f0"></path><polygon points="299.06 124.51 333.81 104.29 360.58 104.29 395.9 123.55 395.9 344.61 299.06 344.61 299.06 124.51" style="fill:#f0f0f0"></polygon><path d="M396.9,344.61H299.06V124.51l1-1A68.81,68.81,0,0,1,348,104.29h0a68.81,68.81,0,0,1,47.92,19.26l1,1Zm-91.35-6.49h84.86V127.29a62.78,62.78,0,0,0-84.86,0Z" style="fill:#fafafa"></path><polygon points="345.55 338.9 350.41 338.9 350.41 265.41 391.64 265.41 391.64 260.54 350.41 260.54 350.41 186.05 391.64 186.05 391.64 181.19 350.41 181.19 350.41 109.94 345.55 109.94 345.55 181.19 304.32 181.19 304.32 186.05 345.55 186.05 345.55 260.54 304.32 260.54 304.32 265.41 345.55 265.41 345.55 338.9" style="fill:#fafafa"></polygon><path d="M400.14,347.86H295.82V123.18l.95-1a72.52,72.52,0,0,1,102.42,0l.95,1Zm-97.83-6.49h91.34V125.89a66,66,0,0,0-91.34,0Z" style="fill:#f0f0f0"></path></g><g id="freepik--Shadow--inject-2"><ellipse id="freepik--path--inject-2" cx="250" cy="416.24" rx="193.89" ry="11.32" style="fill:#f5f5f5"></ellipse></g><g id="freepik--Plant--inject-2"><path d="M110.92,391.5s-1.38-10.17-7.89-11.29-4.54-6-6.24-7.93-6.12,3.71-2.33,9.15.69,3.73,2.33,8.8S111.52,399.93,110.92,391.5Z" style="fill:#263238"></path><path d="M110.92,391.5s-1.38-10.17-7.89-11.29-4.54-6-6.24-7.93-6.12,3.71-2.33,9.15.69,3.73,2.33,8.8S111.52,399.93,110.92,391.5Z" style="fill:#fff;isolation:isolate;opacity:0.2"></path><path d="M110.65,398.56a.45.45,0,0,1-.4-.26c0-.1-5-10.68-2.41-27.54a70.69,70.69,0,0,1,4-14.09c3.15-8.59,5.63-15.36,0-27.75-1.8-3.92-3.64-7.57-5.42-11.1-6.67-13.26-12-23.73-8-34.33a.44.44,0,0,1,.58-.27.45.45,0,0,1,.26.58c-3.78,10.24,1.41,20.55,8,33.62,1.78,3.53,3.62,7.19,5.43,11.13,5.84,12.72,3.17,20,.08,28.43a68.77,68.77,0,0,0-4,13.92c-2.56,16.56,2.28,26.91,2.33,27a.45.45,0,0,1-.21.6A.46.46,0,0,1,110.65,398.56Z" style="fill:#263238"></path><path d="M106.9,396.07s-4.21-6.33,1.86-9.59,7.29-.64,11-3,6.61-8,7.25-4.39-3.7,5.71-2.17,7.37S114.67,398.93,106.9,396.07Z" style="fill:#263238"></path><path d="M97,288.94s-4.1-12.46,5.22-12.72S101.24,287.61,97,288.94Z" style="fill:#263238"></path><path d="M105.07,298.51s2.78-11.32,9.39-8.93S111.66,298.72,105.07,298.51Z" style="fill:#263238"></path><path d="M93.85,299.49s1-9-6-9.21S83.93,298,93.85,299.49Z" style="fill:#263238"></path><path d="M98.52,317.93s-9.42-8.4-12.81-2.15S92.82,323.33,98.52,317.93Z" style="fill:#263238"></path><path d="M115.18,316.44s1.78-13.95,9.38-9.57S121.81,317.83,115.18,316.44Z" style="fill:#263238"></path><path d="M121.88,336.41s-5.62-14.1,4.82-12.51S129.25,333,121.88,336.41Z" style="fill:#263238"></path><path d="M105.86,341.43s-8.81-10.38-15.55-7.09S89.08,348,105.86,341.43Z" style="fill:#263238"></path><path d="M113.86,364.44s7.51-16.67,14.19-11.05S123.79,367.41,113.86,364.44Z" style="fill:#263238"></path><path d="M103,363.47s2-12.94-5.45-11.9S92,360.52,103,363.47Z" style="fill:#263238"></path><g style="isolation:isolate;opacity:0.2"><path d="M97,288.94s-4.1-12.46,5.22-12.72S101.24,287.61,97,288.94Z" style="fill:#fff"></path><path d="M105.07,298.51s2.78-11.32,9.39-8.93S111.66,298.72,105.07,298.51Z" style="fill:#fff"></path><path d="M93.85,299.49s1-9-6-9.21S83.93,298,93.85,299.49Z" style="fill:#fff"></path><path d="M98.52,317.93s-9.42-8.4-12.81-2.15S92.82,323.33,98.52,317.93Z" style="fill:#fff"></path><path d="M115.18,316.44s1.78-13.95,9.38-9.57S121.81,317.83,115.18,316.44Z" style="fill:#fff"></path><path d="M121.88,336.41s-5.62-14.1,4.82-12.51S129.25,333,121.88,336.41Z" style="fill:#fff"></path><path d="M105.86,341.43s-8.81-10.38-15.55-7.09S89.08,348,105.86,341.43Z" style="fill:#fff"></path><path d="M113.86,364.44s7.51-16.67,14.19-11.05S123.79,367.41,113.86,364.44Z" style="fill:#fff"></path><path d="M103,363.47s2-12.94-5.45-11.9S92,360.52,103,363.47Z" style="fill:#fff"></path></g><path d="M101,306a.43.43,0,0,1-.22-.06c-5.52-3.09-9.48-8.92-9.65-9.17a.45.45,0,0,1,.75-.5,33,33,0,0,0,8.94,8.65c.84-1.56,3.87-6.94,6.4-8.46a.46.46,0,0,1,.47.78c-2.69,1.61-6.26,8.45-6.29,8.52a.49.49,0,0,1-.27.22Z" style="fill:#263238"></path><path d="M109.55,323.32a.45.45,0,0,1-.27-.1c-7.84-5.92-17.87-5.68-18-5.68a.45.45,0,0,1,0-.9c.11,0,10.11-.25,18.15,5.57,1-1.68,5.08-7.74,10.26-10.79a.45.45,0,0,1,.62.16.47.47,0,0,1-.16.62c-5.71,3.36-10.16,10.82-10.2,10.89a.51.51,0,0,1-.3.22Z" style="fill:#263238"></path><path d="M115,346.18a.46.46,0,0,1-.23-.06c-.11-.06-11.58-6.66-19.86-6.82a.45.45,0,1,1,0-.9c7.9.15,18.19,5.75,20,6.79,5.32-4.49,9.55-15.51,9.59-15.62a.45.45,0,0,1,.58-.26.46.46,0,0,1,.27.58c-.19.48-4.49,11.69-10.11,16.19A.42.42,0,0,1,115,346.18Z" style="fill:#263238"></path><path d="M108.35,369.83a.43.43,0,0,1-.22-.06c-4.34-2.48-9.94-13.34-10.17-13.8a.45.45,0,0,1,.8-.41c.06.11,5.41,10.5,9.48,13.22a25.79,25.79,0,0,1,12.6-8,.45.45,0,1,1,.26.86,24.69,24.69,0,0,0-12.38,8.05A.47.47,0,0,1,108.35,369.83Z" style="fill:#263238"></path><path d="M107.54,394.56s-3.6-5.74-7.68-6.56-5.82-5.5-7.33-2.68S95.17,397.49,107.54,394.56Z" style="fill:#263238"></path><polygon points="88.83 417.09 128.21 417.09 130.84 392.8 86.19 392.8 88.83 417.09" style="fill:#407BFF"></polygon><polygon points="85.27 397.4 131.76 397.4 132.35 392.26 84.68 392.26 85.27 397.4" style="fill:#407BFF"></polygon><polygon points="85.27 397.4 131.76 397.4 132.35 392.26 84.68 392.26 85.27 397.4" style="fill:#fff;opacity:0.30000000000000004"></polygon></g><g id="freepik--Table--inject-2"><path d="M330.48,289.89H433.34c0,5.84-3,6.63-6.74,6.89-11.06.77-28.06,3.48-33.46,12.94-10.05,17.64-9.08,83.59,3,97.94,3.77,4.5,14.78,9.43,14.78,9.43h-58s10.29-5.11,13.86-9.43c12-14.46,12.32-80.38,2.22-97.94-5.18-9-21.12-11.91-31.81-12.83C333.42,296.56,330.48,295.73,330.48,289.89Z" style="fill:#263238"></path><path d="M330.48,289.89H433.34c0,5.84-3,6.63-6.74,6.89-11.06.77-28.06,3.48-33.46,12.94-10.05,17.64-9.08,83.59,3,97.94,3.77,4.5,14.78,9.43,14.78,9.43h-58s10.29-5.11,13.86-9.43c12-14.46,12.32-80.38,2.22-97.94-5.18-9-21.12-11.91-31.81-12.83C333.42,296.56,330.48,295.73,330.48,289.89Z" style="fill:#fff;opacity:0.5"></path><path d="M420.6,297.36c-10.45,1.3-23,4.49-27.46,12.36a38.7,38.7,0,0,0-3.4,9.11H372.47a38.56,38.56,0,0,0-3.46-9.11c-4.5-7.83-17.13-11.05-27.38-12.36Z" style="isolation:isolate;opacity:0.30000000000000004"></path><path d="M355.18,271.82a1,1,0,1,1-1-1A1,1,0,0,1,355.18,271.82Z" style="fill:#407BFF"></path><path d="M354,271.33s-.27-3-1.47-4.27l.3-.29c1.3,1.34,1.57,4.4,1.58,4.52Z" style="fill:#263238"></path><polygon points="355.2 279.26 355.25 279.26 362.06 271.92 345.95 271.92 352.76 279.26 352.8 279.26 352.8 287.74 349.44 289.88 358.57 289.88 355.2 287.74 355.2 279.26" style="fill:#407BFF"></polygon><polygon points="355.2 279.26 355.25 279.26 362.06 271.92 345.95 271.92 352.76 279.26 352.8 279.26 352.8 287.74 349.44 289.88 358.57 289.88 355.2 287.74 355.2 279.26" style="fill:#fff;opacity:0.7000000000000001"></polygon><path d="M349.3,274.61l4,4.38a.94.94,0,0,0,1.39,0l4-4.38Z" style="fill:#407BFF"></path><path d="M375.89,272.19a1,1,0,1,1-.34-1.36A1,1,0,0,1,375.89,272.19Z" style="fill:#407BFF"></path><path d="M375.48,271.33l-.37-.17s1.31-2.76.92-4.43l.4-.09C376.86,268.45,375.54,271.22,375.48,271.33Z" style="fill:#263238"></path><polygon points="377.1 279.26 377.14 279.26 383.95 271.92 367.84 271.92 374.65 279.26 374.69 279.26 374.69 287.74 371.33 289.88 380.46 289.88 377.1 287.74 377.1 279.26" style="fill:#407BFF"></polygon><polygon points="377.1 279.26 377.14 279.26 383.95 271.92 367.84 271.92 374.65 279.26 374.69 279.26 374.69 287.74 371.33 289.88 380.46 289.88 377.1 287.74 377.1 279.26" style="fill:#fff;opacity:0.7000000000000001"></polygon><path d="M371.19,274.61l4,4.38a.94.94,0,0,0,1.39,0l4-4.38Z" style="fill:#407BFF"></path><polygon points="403.58 240.93 399.86 240.93 398 242.55 399.86 244.16 403.58 244.16 405.44 242.55 403.58 240.93" style="fill:#407BFF"></polygon><polygon points="403.58 240.93 399.86 240.93 398 242.55 399.86 244.16 403.58 244.16 405.44 242.55 403.58 240.93" style="fill:#fff;opacity:0.6000000000000001"></polygon><path d="M409.37,257.51h-2.45a2.37,2.37,0,0,1-2.38-2.37V243.51H398.9v11.63a2.38,2.38,0,0,1-2.38,2.37h-2.45a2.07,2.07,0,0,0-2.07,2.07v28.24a2.07,2.07,0,0,0,2.07,2.07h15.3a2.07,2.07,0,0,0,2.06-2.07V259.58A2.07,2.07,0,0,0,409.37,257.51Z" style="fill:#407BFF"></path><path d="M409.37,257.51h-2.45a2.37,2.37,0,0,1-2.38-2.37V243.51H398.9v11.63a2.38,2.38,0,0,1-2.38,2.37h-2.45a2.07,2.07,0,0,0-2.07,2.07v28.24a2.07,2.07,0,0,0,2.07,2.07h15.3a2.07,2.07,0,0,0,2.06-2.07V259.58A2.07,2.07,0,0,0,409.37,257.51Z" style="fill:#fff;opacity:0.7000000000000001"></path><rect x="392" y="264.03" width="13.71" height="18.83" style="fill:#407BFF"></rect></g><g id="freepik--Hearts--inject-2"><path d="M254.36,99c4.95-4.14,10.4-.1,12.22,5,4.51-3,11.3-3,12.77,3.33,2.48,10.58-11.36,15-17.68,16.43l-1.81.4c-.33-.37-.72-.84-1.2-1.4C254.47,117.86,246,106,254.36,99Z" style="fill:#407BFF"></path><path d="M312.08,185.92c3.65-3.31,7.93-.38,9.47,3.45,3.36-2.41,8.54-2.58,9.85,2.16,2.2,8-8.24,11.79-13,13.07L317,205c-.27-.28-.58-.62-1-1C312.71,200.28,305.93,191.49,312.08,185.92Z" style="fill:#407BFF"></path><path d="M299.76,227.09c1.19-.92,2.43.08,2.8,1.28,1.08-.65,2.66-.57,2.94.9.48,2.49-2.79,3.39-4.28,3.66l-.43.08-.26-.34C299.6,231.47,297.75,228.63,299.76,227.09Z" style="fill:#407BFF"></path><path d="M323,221.37c1.22-2,3.6-1.28,4.84.27,1.21-1.59,3.57-2.39,4.84-.39,2.13,3.37-2.14,6.57-4.16,7.83l-.58.36-.58-.34C325.25,227.89,320.9,224.8,323,221.37Z" style="fill:#407BFF"></path><path d="M219.41,115.85c.21-2.36,2.68-2.72,4.47-1.86.4-1.95,2.18-3.7,4.19-2.44,3.39,2.11.93,6.85-.35,8.86-.14.23-.26.42-.37.57l-.67-.06C224.31,120.73,219,119.82,219.41,115.85Z" style="fill:#407BFF"></path><path d="M280.81,135.05c.69-.94,1.83-.47,2.37.35.66-.72,1.86-1,2.4,0,.89,1.76-1.35,3.14-2.41,3.67l-.3.15-.27-.2C281.65,138.36,279.64,136.64,280.81,135.05Z" style="fill:#407BFF"></path><path d="M168.81,157.52c1-4,5.25-3.93,8.07-2,1.18-3.2,4.64-5.71,7.73-3.08,5.2,4.45-.18,11.86-2.85,14.94l-.77.88c-.31-.06-.68-.15-1.13-.26C175.88,167,167.19,164.17,168.81,157.52Z" style="fill:#407BFF"></path><path d="M165.69,192.09c-.67-1.92,1.14-3.07,2.84-3-.37-1.66.41-3.66,2.42-3.38,3.39.46,3.13,5,2.84,7,0,.23-.06.42-.08.57l-.55.2C171.24,194.18,166.8,195.33,165.69,192.09Z" style="fill:#407BFF"></path><path d="M323,221.37c1.22-2,3.6-1.28,4.84.27,1.21-1.59,3.57-2.39,4.84-.39,2.13,3.37-2.14,6.57-4.16,7.83l-.58.36-.58-.34C325.25,227.89,320.9,224.8,323,221.37Z" style="fill:#fff;opacity:0.30000000000000004"></path><path d="M219.41,115.85c.21-2.36,2.68-2.72,4.47-1.86.4-1.95,2.18-3.7,4.19-2.44,3.39,2.11.93,6.85-.35,8.86-.14.23-.26.42-.37.57l-.67-.06C224.31,120.73,219,119.82,219.41,115.85Z" style="fill:#fff;opacity:0.30000000000000004"></path><path d="M165.69,192.09c-.67-1.92,1.14-3.07,2.84-3-.37-1.66.41-3.66,2.42-3.38,3.39.46,3.13,5,2.84,7,0,.23-.06.42-.08.57l-.55.2C171.24,194.18,166.8,195.33,165.69,192.09Z" style="fill:#fff;opacity:0.30000000000000004"></path><path d="M299.76,227.09c1.19-.92,2.43.08,2.8,1.28,1.08-.65,2.66-.57,2.94.9.48,2.49-2.79,3.39-4.28,3.66l-.43.08-.26-.34C299.6,231.47,297.75,228.63,299.76,227.09Z" style="fill:#fff;opacity:0.5"></path><path d="M280.81,135.05c.69-.94,1.83-.47,2.37.35.66-.72,1.86-1,2.4,0,.89,1.76-1.35,3.14-2.41,3.67l-.3.15-.27-.2C281.65,138.36,279.64,136.64,280.81,135.05Z" style="fill:#fff;opacity:0.5"></path></g><g id="freepik--Characters--inject-2"><polygon points="247.17 411.05 255.39 411.05 254.54 405.51 253.2 396.72 245.32 398.95 246.33 405.51 247.17 411.05" style="fill:#ebb376"></polygon><polygon points="201.62 411.5 209.75 411.5 209.71 404.79 209.66 396.42 201.52 397.49 201.58 404.79 201.62 411.5" style="fill:#ebb376"></polygon><polygon points="209.66 396.42 209.71 404.79 201.58 404.79 201.52 397.49 209.66 396.42" style="opacity:0.2"></polygon><polygon points="254.54 405.51 246.33 405.51 245.32 398.95 253.2 396.72 254.54 405.51" style="opacity:0.2"></polygon><path d="M255,408l-9-.24a.73.73,0,0,0-.72.54l-1.88,7.2a1.19,1.19,0,0,0,1.13,1.49c3.23,0,7.9,0,12,.08,4.74.12,7.76-.11,13.33,0,3.36.09,4.42-3.27,3-3.61-6.36-1.57-10.52-1.26-15.94-4.81A3.74,3.74,0,0,0,255,408Z" style="fill:#263238"></path><path d="M209.45,408l-8.95-.24a.71.71,0,0,0-.71.54l-1.88,7.2A1.18,1.18,0,0,0,199,417c3.23,0,7.91,0,12,.08,4.75.12,7.76-.11,13.33,0,3.36.09,4.42-3.27,3-3.61-6.36-1.57-10.52-1.26-15.94-4.81A3.71,3.71,0,0,0,209.45,408Z" style="fill:#263238"></path><path d="M192.13,239.15c-2.15,35.92,5.73,164.65,5.73,164.65l13-1.16,5.58-128.31L241.26,403.8l13.37-1.16c-10-94.76-19.2-158.43-19.2-158.43l0-7.15-34.9-4.81A7.41,7.41,0,0,0,192.13,239.15Z" style="fill:#263238"></path><path d="M254.64,402.64l-13.38,1.16-20-103.43-4.79-26-5.58,128.3-13,1.16S190.23,280,192,241.44a9.41,9.41,0,0,1,10.69-8.89l32.75,4.52,0,7.14S244.66,307.87,254.64,402.64Z" style="fill:#fff;opacity:0.2"></path><path d="M235.57,240l-1.51-.29-2.57-.5c-6.1-1.18-13.6-2.64-20.45-3.95l-2.56-.5-10.07-2a5.08,5.08,0,0,1-3.88-6.5c1.39-4.48,3.48-11,5.58-18.75,1.39-5.16,2.77-10.86,4-16.91,1-5.14,1.86-10.53,2.45-16a10.79,10.79,0,0,1,11.77-9.6,1.13,1.13,0,0,0,.18,0c.69.06,1.38.14,2.07.23l1.42.19,1.24.18A158,158,0,0,1,240.07,169c.72.21,1.44.42,2.12.65s1.45.49,2.13.74c1,.35,1.88.69,2.7,1,1.69.68,3,1.28,3.88,1.66a1.66,1.66,0,0,1,1,1.39C252.29,179.49,253.07,203.32,235.57,240Z" style="fill:#407BFF"></path><path d="M236.22,238.67a2,2,0,0,1-2.15,1.08h0l-2.57-.5c-6.1-1.18-13.6-2.64-20.45-3.95l-2.56-.5L195,232.19a1.94,1.94,0,0,1-1.5-2.42c1.2-4.19,3.91-12.12,6.62-22.17,1.34-5,2.69-10.52,3.85-16.37,0-.18.07-.36.11-.54,1-5.14,1.86-10.53,2.45-16a10.59,10.59,0,0,1,.44-2.13,10.82,10.82,0,0,1,11.33-7.47,1.13,1.13,0,0,0,.18,0c.69.06,1.38.14,2.07.23l1.42.19,1.24.18A158,158,0,0,1,240.07,169c.72.21,1.44.42,2.12.65s1.45.49,2.13.74c1,.35,1.88.69,2.7,1,1.59.64,2.9,1.21,3.74,1.59a1.93,1.93,0,0,1,1.13,1.61C252.29,179.89,252.89,203.08,236.22,238.67Z" style="fill:#fff;opacity:0.7000000000000001"></path><path d="M221.27,300.37l-4.79-26,.92-13.78S224,284.45,221.27,300.37Z" style="opacity:0.2"></path><path d="M211,235.3c-.75,2-1.55,4-2.4,6.09l-2.38-1c.78-1.9,1.52-3.76,2.22-5.6,13.81-36.06,13-60.61,12.06-69.47l1.42.19,1.24.18C224.23,175.3,224.7,199.51,211,235.3Z" style="fill:#263238"></path><path d="M234.06,239.75q-.87,2.28-1.85,4.64l-2.38-1c.57-1.41,1.13-2.79,1.66-4.16,13.44-34.36,13.65-58.45,12.83-68.83,1,.35,1.88.69,2.7,1C247.79,182.65,247.11,206.23,234.06,239.75Z" style="fill:#263238"></path><path d="M241.47,175.24s-4.46,2.33-6.57,1.85c-3-.67-9.64-10-9.64-10,3.34-.73,6.63-3.73,9.4-7.17a59.72,59.72,0,0,0,5.75-8.79L244.06,164c-3.08,2.46-5.79,5.33-4.71,8.42h0A6.7,6.7,0,0,0,241.47,175.24Z" style="fill:#ebb376"></path><path d="M239.35,172.37A21,21,0,0,1,234.66,160a59.72,59.72,0,0,0,5.75-8.79L244.06,164C241,166.41,238.27,169.28,239.35,172.37Z" style="opacity:0.2"></path><path d="M253.94,142.68c1.22,3,1.21,9.35-3.25,7.65S251.84,137.55,253.94,142.68Z" style="fill:#263238"></path><path d="M232.16,148.66c.18,7.93-.12,12.58,3.73,16.76,5.79,6.29,15.72,2.94,17.92-4.9,2-7.06,1.35-18.85-6.29-22.22A11,11,0,0,0,232.16,148.66Z" style="fill:#ebb376"></path><path d="M237.34,143.91l-.73-8.81s-9.44.07-8.62,4.84c-5,3-1.86,10.89,5.44,14.28C237,150.84,236,143.5,236,143.5,236.39,143.65,236.86,143.79,237.34,143.91Z" style="fill:#263238"></path><path d="M228.85,155.14a7.45,7.45,0,0,0,3.55,4.5c2.32,1.27,4.09-.67,4-3.17-.12-2.25-1.46-5.62-4-5.86A3.43,3.43,0,0,0,228.85,155.14Z" style="fill:#ebb376"></path><path d="M249.07,151.68a22.29,22.29,0,0,0,2.93,5.41,3.8,3.8,0,0,1-3.09.43Z" style="fill:#d58745"></path><path d="M242,148.8a.35.35,0,0,0,.35-.14,3.09,3.09,0,0,1,2.48-1.19.38.38,0,0,0,.42-.34.37.37,0,0,0-.34-.41,3.79,3.79,0,0,0-3.14,1.47.37.37,0,0,0,.05.53A.3.3,0,0,0,242,148.8Z" style="fill:#263238"></path><path d="M254.64,149a.41.41,0,0,0,.22,0,.39.39,0,0,0,.2-.5,3.72,3.72,0,0,0-2.65-2.21.37.37,0,0,0-.43.31.36.36,0,0,0,.31.43,2.93,2.93,0,0,1,2.07,1.78A.37.37,0,0,0,254.64,149Z" style="fill:#263238"></path><path d="M228,139.94s-5.42-4.16,11-5.79,20.25,7.18,13,10.25l-.53-1.45a10.21,10.21,0,0,1-8.33,1.49l1.09-.89S233.24,146.1,228,139.94Z" style="fill:#263238"></path><path d="M244.41,152.22a2.82,2.82,0,0,1-1.61-.64.28.28,0,1,1,.33-.45,2,2,0,0,0,1.5.5.83.83,0,0,0,.54-.4.28.28,0,0,1,.51.24,1.44,1.44,0,0,1-.9.71A1.5,1.5,0,0,1,244.41,152.22Z" style="fill:#263238"></path><path d="M252.85,152.33a2,2,0,0,1-1.34-.76.27.27,0,0,1,0-.39.29.29,0,0,1,.4,0,1.51,1.51,0,0,0,.91.55.85.85,0,0,0,.62-.4.28.28,0,0,1,.45.33,1.35,1.35,0,0,1-1.07.63Z" style="fill:#263238"></path><polygon points="229.65 164.16 236.76 174.02 239.91 168.31 244.06 171.87 239.75 181.22 236.53 176.99 227.88 178.79 223.75 165.79 229.65 164.16" style="fill:#407BFF"></polygon><polygon points="229.65 164.16 236.76 174.02 239.91 168.31 244.06 171.87 239.75 181.22 236.53 176.99 227.88 178.79 223.75 165.79 229.65 164.16" style="fill:#fff;opacity:0.6000000000000001"></polygon><path d="M194.48,226.5l42.37,10.79-.58,12.52-44.69,8.55S189.87,241.39,194.48,226.5Z" style="fill:#263238"></path><path d="M194.48,226.5l42.37,10.79-.58,12.52-44.69,8.55S189.87,241.39,194.48,226.5Z" style="fill:#fff;opacity:0.2"></path><polygon points="207.23 230.52 193.74 227.13 192.76 231.22 206.3 234.48 207.23 230.52" style="fill:#263238"></polygon><path d="M207.74,234.83,235,241.4c.17-1.13.42-2.78.58-3.78l-26.78-6.72Z" style="fill:#263238"></path><polygon points="236.48 237.86 235.87 241.62 236.85 241.85 237.38 238.08 236.48 237.86" style="fill:#263238"></polygon><path d="M225.41,239.63a1.49,1.49,0,0,1-.36,0l-4.14-1a1.54,1.54,0,0,1-1.13-1.83l.43-1.94h0a1.48,1.48,0,0,1,.7-1,1.46,1.46,0,0,1,1.17-.18l4.14,1a1.54,1.54,0,0,1,1.12,1.84l-.44,1.9a1.52,1.52,0,0,1-.68,1A1.58,1.58,0,0,1,225.41,239.63Zm-4.1-4.57-.44,1.94a.43.43,0,0,0,.31.5l4.13,1a.4.4,0,0,0,.32-.05.38.38,0,0,0,.18-.25l.44-1.91a.41.41,0,0,0-.3-.49l-4.14-1a.51.51,0,0,0-.32.05.4.4,0,0,0-.18.26Z" style="fill:#fff"></path><path d="M225.54,237.37h-.07l-1.22-.31a.29.29,0,0,1-.21-.34.28.28,0,0,1,.34-.2l1.23.31a.28.28,0,0,1-.07.55Z" style="fill:#fff"></path><path d="M227.77,198.54,225.26,200s1.73,6.88-9.91,1.67A24.85,24.85,0,0,1,204,191.23c0-.18.07-.36.11-.54,1-5.14,1.86-10.53,2.45-16a10.59,10.59,0,0,1,.44-2.13c4.44.07,11.95,1.16,15.76,7.27A35.22,35.22,0,0,1,227.77,198.54Z" style="opacity:0.1"></path><path d="M268,286.82c0,4.34-.24,9.18-.72,14.55-.31,3.44-.73,7.09-1.27,11h0c-.13.93-.26,1.87-.41,2.83q-.83,5.52-2,11.63c8.41,28.05-8.87,82.77-8.87,82.77-2.93.58-5.52.2-6.83-.78,3.26-16.49.91-59.36-1.62-85-.22-2.32-.51-4.88-.82-7.61l-.18-1.57c-.48-4.2-1-8.74-1.62-13.41-.76-6-1.59-12.27-2.4-18.24H268C268,284.22,268,285.5,268,286.82Z" style="fill:#eec1bb"></path><path d="M325.87,390.46c-2.33,1.86-4.8,2.72-6.41,2.46-4.73-16.13-26.62-53.07-40.7-74.62-.74-1.14-1.53-2.34-2.37-3.59l-1.87-2.78c-2.22-3.3-4.67-6.87-7.22-10.56l-1.3-1.89c-3.66-5.28-7.5-10.74-11.16-15.9-.13-.2-.27-.4-.41-.59h30.14q2.15,4.74,4.31,10.36,1,2.72,2.09,5.65h0q1.65,4.65,3.28,9.85c.43,1.34.84,2.7,1.26,4.1C315.91,333.94,325.87,390.46,325.87,390.46Z" style="fill:#eec1bb"></path><path d="M329.72,396.53l-1.2.62-1.1-1.31-3,3.86-10.06,5.24s-2.44-.77,1.69-4.55a4.11,4.11,0,0,0,.54-.61c1.93-2.53,3.46-8.47,3.46-8.47l5.52-2.87a7.19,7.19,0,0,1,.86.56C327.63,389.9,330,391.9,329.72,396.53Z" style="fill:#407BFF"></path><path d="M326.39,389h0c-1.15-.43-2.61,4.87-4.4,7.34-1.61,2.22-3.8,4-5.45,3.43,1.93-2.53,3.22-9.85,3.22-9.85l4.44-2.31S325.86,388.61,326.39,389Z" style="fill:#ffc2bc"></path><path d="M255.33,416.74H254l-.37-1.67-4.48,2H237.79s-1.81-1.81,3.6-3.26a3.79,3.79,0,0,0,.76-.29c2.88-1.35,7-5.91,7-5.91h6.22a7.17,7.17,0,0,1,.51.9C256.54,409.9,257.72,412.77,255.33,416.74Z" style="fill:#407BFF"></path><path d="M255.86,408.53v0c-.82-.92-4.56,3.1-7.3,4.47-2.44,1.22-5.19,1.76-6.41.52,2.88-1.35,7.41-7.25,7.41-7.25h5S255.57,407.94,255.86,408.53Z" style="fill:#ffc2bc"></path><path d="M294.24,308.85c-6,3.47-13.59,5.14-17.85,5.86l-1.87-2.78c-2.22-3.3-4.67-6.87-7.22-10.56-.31,3.44-.73,7.09-1.27,11h0c-.13.93-.26,1.87-.41,2.83H254.22l-6-14.81,1.2,12.16-4.1,2.11c-.48-4.2-1-8.74-1.62-13.41-.76-6-1.59-12.27-2.4-18.24h11.06l2.52.59c4,.92,8.55,2,13.18,3.24a206.5,206.5,0,0,1,20.86,6.53q1,2.72,2.09,5.65h0Q292.61,303.65,294.24,308.85Z" style="isolation:isolate;opacity:0.2"></path><path d="M282.75,218.89a15.54,15.54,0,0,1-3.2.22,9.29,9.29,0,0,1-4.72-1.25l3-20.19,1.34-9C283.57,191.21,286.24,218.3,282.75,218.89Z" style="fill:#eec1bb"></path><path d="M279.55,219.11a9.29,9.29,0,0,1-4.72-1.25l3-20.19c.15-.11-4.92-1.91-4.77-2S281.83,207.61,279.55,219.11Z" style="isolation:isolate;opacity:0.2"></path><path d="M257.24,154.67l-1.33-.32S256.59,155.39,257.24,154.67Z" style="fill:#263238"></path><path d="M255.8,156a16.77,16.77,0,0,1-4.06,1.37c.07,1,1.26,1.55,1.26,1.55Z" style="fill:#d4827d"></path><path d="M258.24,152.3a.32.32,0,0,1,.07-.23.33.33,0,0,1,.47,0,3.52,3.52,0,0,1,1.37,2.79.31.31,0,0,1-.36.28.37.37,0,0,1-.31-.37,2.77,2.77,0,0,0-1.11-2.2A.41.41,0,0,1,258.24,152.3Z" style="fill:#263238"></path><path d="M259.26,175.19a1.6,1.6,0,0,1-.3,0l-.59-.1a10.28,10.28,0,0,1-3.56-1.17c-3.54-2-5.22-4.28-5.4-6.79a2.83,2.83,0,0,1,0-.3h0c0-3.81,3-7.88,7.31-12a22.42,22.42,0,0,1,5.73-4.22s.07-.06.08-.06l.26-.12a8.18,8.18,0,0,1,7.79.45,16.8,16.8,0,0,1,2.87,2.13C282,160.85,270.37,176.43,259.26,175.19Z" style="fill:#eec1bb"></path><path d="M258.37,175.06a10.28,10.28,0,0,1-3.56-1.17c-3.54-2-5.22-4.28-5.4-6.79a11.44,11.44,0,0,0,5.51,4.18A5.92,5.92,0,0,1,258.37,175.06Z" style="isolation:isolate;opacity:0.2"></path><path d="M266.51,185.94c1.12,4-4,6-4,6-8.82-3.16-10.69-7.64-10.69-7.64,7-4.17,4.25-14.64,4.25-14.64l1.5.63,10.37,1.4s-2.52,5.63-2.82,6.89v0C263.53,185.22,266.51,185.94,266.51,185.94Z" style="fill:#eec1bb"></path><path d="M262.47,150.5s-7.14,5.65-3.87,13.53c0,0-2.29,8.39,1.21,11.83,4.78,4.69,15.59,1.75,20.52-6.92C286.72,157.7,273.49,143.94,262.47,150.5Z" style="fill:#263238"></path><path d="M258.22,159.75c.74-1,2.83-2.18,4.28-.79s-.49,6.72-5.26,4.7C256.56,163.36,256.66,161.91,258.22,159.75Z" style="fill:#eec1bb"></path><path d="M278.84,153.87s-4.36-6.78-9.66-7.43c-6.2-.76-10.19.71-9.84,9.09,0,0,12.49,5.85,15.07,9.49a47.29,47.29,0,0,1,4,6.7C285,166,283.24,155.56,278.84,153.87Z" style="fill:#263238"></path><path d="M252.7,161.06s-.43-1.21-1-1.38-.67,2.09-.67,2.09-2.33,1-2.16,1.85,1.89,1.57,1.89,1.57Z" style="fill:#eec1bb"></path><path d="M259.68,163.92s-3.2,4.27-1.46,15.15a30.12,30.12,0,0,0,14.84,4.22h8.33s-.67-9.5.61-16.19,1.07-10.11-3.16-13.23S265,163.44,265,163.44Z" style="fill:#263238"></path><path d="M257.83,162.77a.59.59,0,1,1-.59-.58A.58.58,0,0,1,257.83,162.77Z" style="fill:#263238"></path><path d="M279.17,188.7s-1,8.7-1.95,20.51c-.77,9.4-1.51,20.77-1.7,31.29H244.05s-.36-1-.9-2.83c-.5-1.66-1.15-4-1.82-6.83v0c-1.83-7.68-3.79-19-3.17-30.49,0-.71.08-1.43.14-2.14.07-.94.17-1.87.28-2.81a57.94,57.94,0,0,1,1.24-6.94,46.51,46.51,0,0,1,4.05-10.92s1.29-.28,6.51,1.79C257.42,182.1,279.17,188.7,279.17,188.7Z" style="fill:#eec1bb"></path><path d="M254.22,180.78a10.43,10.43,0,0,1,7.59,0,12.65,12.65,0,0,1,6.3,4.48Z" style="fill:#407BFF"></path><path d="M294.79,307.2c-25.73,2.23-39,5.23-39,5.23l-1-2.51-1.91-5.08-1.28-3.39-.88-2.33-1.66-4.4-.59-1.56-1.35-3.57.11,3.8.05,1.65.14,4.67.08,2.48.11,3.6.16,5.38v.33l-3.62,3.68c-.2-1.08-.38-2.15-.56-3.21-.3-1.79-.58-3.54-.83-5.27-.17-1.19-.33-2.37-.48-3.53-.11-.82-.22-1.64-.31-2.44-.19-1.56-.36-3.1-.51-4.61-.06-.55-.11-1.09-.16-1.63q-.27-2.87-.45-5.59c0-.2,0-.4,0-.59-1.67-25.51,1.73-42,2.84-46.52a17,17,0,0,0-.57-4.12c-.34-1.59-.89-3.73-1.74-6.57,0-.08,0-.17-.08-.26v0c-1.35-4.6-3.45-14.26-3.45-14.26s-3-5.42-2.51-10.73a15.9,15.9,0,0,1,2.9-7.69s0,0,0,.05.29.53.67,1.13c2.51,4,11.7,16.73,27,19.8,8.3,1.67,10.24-5.14,11.26-9.91.07-.34.14-.67.2-1,0,0-1.11,15.47-1.11,26a57.49,57.49,0,0,0,.36,7.59c6.47,8,11.05,24.82,14,39.38l.12.59c.38,1.88.72,3.72,1.05,5.5.09.54.19,1.08.28,1.61.28,1.59.54,3.13.77,4.58.14.83.26,1.64.39,2.42.19,1.26.36,2.44.52,3.53.31,2.16.55,4,.71,5.28C294.69,306.3,294.79,307.2,294.79,307.2Z" style="fill:#407BFF"></path><path d="M244.54,188.1A40.15,40.15,0,0,1,239,199.32c-.26.35-.53.68-.81,1a16.79,16.79,0,0,1-2.06,2.07,15.27,15.27,0,0,1,2.17-4.26s0,0,0,.05c.07-.94.17-1.87.28-2.81a57.94,57.94,0,0,1,1.24-6.94A43,43,0,0,1,244.54,188.1Z" style="isolation:isolate;opacity:0.2"></path><path d="M220.26,172.34c1.08,6.32,3.39,20.89,4.67,26.93.76,3,1,6.34,2.86,8.86,6.94,8.52,16.41,14.79,25.25,21.31l-2.61,4.7c-10.91-5.12-21.89-11-30.19-20-2.53-2.82-3.79-6.62-4.77-10.18-1.09-3.84-2-7.73-2.77-11.58-1.27-6.15-2.32-12.25-3.19-18.47l10.75-1.59Z" style="fill:#e9b376"></path><path d="M215,164.94c9.37-1.29,10.58,30,10.58,30l-15.27,3.2S196.08,167.54,215,164.94Z" style="fill:#407BFF"></path><path d="M215,164.94c9.37-1.29,10.58,30,10.58,30l-15.27,3.2S196.08,167.54,215,164.94Z" style="fill:#fff;opacity:0.7000000000000001"></path><polygon points="208.56 197.33 226.13 192.88 226.54 197.33 209.89 200.16 208.56 197.33" style="fill:#407BFF"></polygon><polygon points="208.56 197.33 226.13 192.88 226.54 197.33 209.89 200.16 208.56 197.33" style="fill:#fff;opacity:0.6000000000000001"></polygon><polygon points="263.83 232.69 259.36 239.91 253.89 237.21 258.88 228.24 263.83 232.69" style="fill:#ebb376"></polygon><path d="M250.79,227.66l8.09.57-5,9s-6.77-2-6.06-5.74Z" style="fill:#ebb376"></path><path d="M275.83,224l2.8,2a1.11,1.11,0,0,1,.46,1.05l-.89,7.1a1.1,1.1,0,0,1-1.36.94l-1.11-.26a3.12,3.12,0,0,1-2.39-3.39l.74-6.63A1.11,1.11,0,0,1,275.83,224Z" style="fill:#ebb376"></path><path d="M236,169.4l-4.2-7.11,6.71-2.63s3.64,4.55,1.23,8.7Z" style="fill:#eec1bb"></path><polygon points="231.86 158.91 236.95 155.66 238.46 159.66 231.75 162.29 231.86 158.91" style="fill:#eec1bb"></polygon><path d="M246.87,186.7a112.41,112.41,0,0,1-19.8,11c-2.65,1-5.5,2.11-8.61,1.73a5.79,5.79,0,0,1-5.12-5.27c-.46-6.28,5.9-12.55,9.63-16.84a135.45,135.45,0,0,1,13-12.05,2.52,2.52,0,0,1,3.52,3.55c-3.61,4.37-7.28,8.85-10.66,13.38-2.43,3.48-5.45,7.06-6.49,11a2,2,0,0,0-.48-1.44l-.9-.88a3,3,0,0,0-1.25-.58c-.17,0-.18,0-.11-.05,3.32-.93,6.53-2.88,9.68-4.63,4-2.34,8.13-4.9,12.06-7.4,5.62-3.31,10.81,4.54,5.57,8.42Z" style="fill:#ebc0bb"></path><g style="opacity:0.2"><path d="M247.67,305.79l.16,5.38c-1.39.25-2.79.52-4.17.8-.3-1.79-.58-3.54-.83-5.27C244.44,306.38,246.05,306.08,247.67,305.79Z"></path><path d="M294.49,304.71q-20,1.83-39.64,5.21l-1.91-5.08q20.19-3.51,40.84-5.41C294.09,301.59,294.33,303.39,294.49,304.71Z"></path><path d="M247.48,299.71l.08,2.48c-1.74.31-3.48.63-5.21,1-.11-.82-.22-1.64-.31-2.44Q244.76,300.19,247.48,299.71Z"></path><path d="M293.26,295.9q-21,2-41.6,5.55l-.88-2.33q20.8-3.67,42.09-5.64C293,294.31,293.13,295.12,293.26,295.9Z"></path><path d="M247.29,293.39l.05,1.65q-2.91.51-5.81,1.08c-.06-.55-.11-1.09-.16-1.63Q244.33,293.92,247.29,293.39Z"></path><path d="M292.1,288.9q-21.72,2-43,5.82l-.59-1.56q21.41-3.81,43.29-5.87C291.91,287.83,292,288.37,292.1,288.9Z"></path><path d="M290.77,281.79q-25.23,2.38-49.85,7.11c0-.2,0-.4,0-.59q24.56-4.69,49.77-7.11Z"></path></g></g></svg>
